<svg width="125" height="36" viewBox="0 0 125 36" fill="none" xmlns="http://www.w3.org/2000/svg">
<path d="M14.5408 34.7363C11.6383 34.7363 9.11396 34.2119 6.96762 33.1631C4.82128 32.0899 3.17494 30.5777 2.02859 28.6265C0.882253 26.6753 0.309082 24.407 0.309082 21.8216C0.309082 18.2363 0.979814 15.0533 2.32128 12.2728C3.68713 9.49236 5.52859 7.34601 7.84567 5.83382C10.1627 4.29723 12.7359 3.52894 15.5652 3.52894C18.1993 3.52894 20.1993 4.21187 21.5652 5.57772C22.931 6.91919 23.614 8.69967 23.614 10.9192C23.614 12.407 23.3457 13.6021 22.8091 14.5046C22.2969 15.407 21.553 15.8582 20.5774 15.8582C19.8944 15.8582 19.3579 15.6997 18.9676 15.3826C18.5774 15.0655 18.3823 14.6021 18.3823 13.9924C18.3823 13.7728 18.431 13.3704 18.5286 12.785C18.6749 12.0533 18.7481 11.468 18.7481 11.0289C18.7481 8.80943 17.5652 7.69967 15.1993 7.69967C13.5896 7.69967 12.053 8.22406 10.5896 9.27284C9.12615 10.3216 7.94323 11.8704 7.04079 13.9192C6.13835 15.9436 5.68713 18.3582 5.68713 21.1631C5.68713 24.0899 6.5042 26.3582 8.13835 27.968C9.7725 29.5533 12.1871 30.346 15.3823 30.346C16.9676 30.346 18.5652 30.1509 20.1749 29.7606C21.8091 29.346 23.614 28.7241 25.5896 27.8948C25.9554 27.7485 26.2603 27.6753 26.5042 27.6753C26.8944 27.6753 27.1871 27.8216 27.3823 28.1143C27.5774 28.407 27.6749 28.785 27.6749 29.2485C27.6749 30.7363 26.8701 31.8338 25.2603 32.5411C23.5286 33.2972 21.7237 33.8582 19.8457 34.2241C17.992 34.5655 16.2237 34.7363 14.5408 34.7363ZM43.1059 23.3216C43.423 23.3216 43.6669 23.4802 43.8376 23.7972C44.0084 24.1143 44.0937 24.5167 44.0937 25.0046C44.0937 26.1753 43.7401 26.8704 43.0328 27.0899C41.5693 27.6021 39.9596 27.8948 38.2035 27.968C37.7401 30.0167 36.8254 31.6631 35.4596 32.907C34.0937 34.1265 32.545 34.7363 30.8132 34.7363C29.3498 34.7363 28.0937 34.3826 27.045 33.6753C26.0206 32.968 25.2401 32.0289 24.7035 30.8582C24.1669 29.6875 23.8986 28.4192 23.8986 27.0533C23.8986 25.1997 24.2523 23.5533 24.9596 22.1143C25.6669 20.6509 26.6425 19.5167 27.8864 18.7119C29.1303 17.8826 30.5084 17.468 32.0206 17.468C33.8742 17.468 35.362 18.1143 36.484 19.407C37.6303 20.6753 38.3011 22.2485 38.4962 24.1265C39.6425 24.0533 41.0084 23.8094 42.5937 23.3948C42.7889 23.346 42.9596 23.3216 43.1059 23.3216ZM31.1059 30.8582C31.8864 30.8582 32.5572 30.5411 33.1181 29.907C33.7035 29.2728 34.0937 28.3582 34.2889 27.1631C33.5328 26.6509 32.9474 25.9802 32.5328 25.1509C32.1425 24.3216 31.9474 23.4436 31.9474 22.5167C31.9474 22.1265 31.984 21.7363 32.0571 21.346H31.8742C30.8986 21.346 30.0815 21.8216 29.423 22.7728C28.7889 23.6997 28.4718 25.0167 28.4718 26.7241C28.4718 28.0655 28.7279 29.0899 29.2401 29.7972C29.7767 30.5046 30.3986 30.8582 31.1059 30.8582ZM45.4537 34.7363C43.9415 34.7363 42.7342 34.1875 41.8317 33.0899C40.9293 31.9924 40.4781 30.5533 40.4781 28.7728C40.4781 26.8216 40.9293 24.9802 41.8317 23.2485C42.7342 21.4924 43.9293 20.0899 45.4171 19.0411C46.9293 17.968 48.5269 17.4314 50.2098 17.4314C50.7464 17.4314 51.1 17.5411 51.2708 17.7606C51.4659 17.9558 51.6244 18.3216 51.7464 18.8582C52.2586 18.7606 52.7952 18.7119 53.3561 18.7119C54.5513 18.7119 55.1488 19.1387 55.1488 19.9924C55.1488 20.5046 54.9659 21.7241 54.6 23.6509C54.0391 26.4558 53.7586 28.407 53.7586 29.5046C53.7586 29.8704 53.8439 30.1631 54.0147 30.3826C54.2098 30.6021 54.4537 30.7119 54.7464 30.7119C55.2098 30.7119 55.7708 30.4192 56.4293 29.8338C57.0878 29.2241 57.9781 28.2485 59.1 26.907C59.3927 26.5655 59.722 26.3948 60.0878 26.3948C60.4049 26.3948 60.6488 26.5411 60.8195 26.8338C61.0147 27.1265 61.1122 27.5289 61.1122 28.0411C61.1122 29.0167 60.8805 29.7728 60.4171 30.3094C59.4171 31.5533 58.3561 32.6021 57.2342 33.4558C56.1122 34.3094 55.0269 34.7363 53.9781 34.7363C53.1732 34.7363 52.4293 34.468 51.7464 33.9314C51.0878 33.3704 50.5878 32.6143 50.2464 31.6631C48.9781 33.7119 47.3805 34.7363 45.4537 34.7363ZM46.7708 31.0411C47.3074 31.0411 47.8195 30.7241 48.3074 30.0899C48.7952 29.4558 49.1488 28.6143 49.3683 27.5655L50.722 20.8338C49.6976 20.8582 48.7464 21.2485 47.8683 22.0046C47.0147 22.7363 46.3317 23.7119 45.8195 24.9314C45.3074 26.1509 45.0513 27.4436 45.0513 28.8094C45.0513 29.5655 45.1976 30.1265 45.4903 30.4924C45.8074 30.8582 46.2342 31.0411 46.7708 31.0411ZM65.1267 34.7363C62.7364 34.7363 60.8706 34.0655 59.5291 32.7241C58.212 31.3582 57.5535 29.5655 57.5535 27.346C57.5535 25.3704 57.9437 23.6387 58.7242 22.1509C59.5047 20.6631 60.5169 19.5167 61.7608 18.7119C63.0047 17.907 64.3096 17.5046 65.6754 17.5046C67.0169 17.5046 68.0535 17.907 68.7852 18.7119C69.5413 19.4924 69.9193 20.5046 69.9193 21.7485C69.9193 22.7728 69.6876 23.6387 69.2242 24.346C68.7852 25.0533 68.1998 25.407 67.4681 25.407C67.0047 25.407 66.6267 25.2972 66.334 25.0777C66.0657 24.8582 65.9315 24.5533 65.9315 24.1631C65.9315 23.9924 65.9559 23.7972 66.0047 23.5777C66.0535 23.3582 66.0901 23.1997 66.1145 23.1021C66.2364 22.7363 66.2974 22.3948 66.2974 22.0777C66.2974 21.7606 66.212 21.5167 66.0413 21.346C65.895 21.1753 65.6754 21.0899 65.3828 21.0899C64.8218 21.0899 64.2974 21.346 63.8096 21.8582C63.3218 22.346 62.9315 23.0167 62.6389 23.8704C62.3462 24.7241 62.1998 25.6631 62.1998 26.6875C62.1998 29.5167 63.4315 30.9314 65.895 30.9314C66.895 30.9314 67.9681 30.6021 69.1145 29.9436C70.2852 29.2606 71.4315 28.2485 72.5535 26.907C72.8462 26.5655 73.1754 26.3948 73.5413 26.3948C73.8584 26.3948 74.1023 26.5411 74.273 26.8338C74.4681 27.1265 74.5657 27.5289 74.5657 28.0411C74.5657 28.968 74.334 29.7241 73.8706 30.3094C72.7242 31.7241 71.3462 32.8216 69.7364 33.6021C68.151 34.3582 66.6145 34.7363 65.1267 34.7363ZM91.9131 26.3948C92.2302 26.3948 92.4741 26.5411 92.6449 26.8338C92.84 27.1265 92.9375 27.5289 92.9375 28.0411C92.9375 29.0167 92.7058 29.7728 92.2424 30.3094C91.1205 31.6021 89.9619 32.6631 88.7668 33.4924C87.5961 34.3216 86.2546 34.7363 84.7424 34.7363C83.4985 34.7363 82.5595 34.3826 81.9253 33.6753C81.2912 32.9436 80.9741 31.8948 80.9741 30.5289C80.9741 29.846 81.1449 28.6265 81.4863 26.8704C81.8034 25.3338 81.9619 24.2728 81.9619 23.6875C81.9619 23.2972 81.8278 23.1021 81.5595 23.1021C81.2424 23.1021 80.7912 23.5167 80.2058 24.346C79.6205 25.1509 79.0351 26.2241 78.4497 27.5655C77.8644 28.907 77.3888 30.3216 77.0229 31.8094C76.5595 33.7606 75.4131 34.7363 73.5839 34.7363C72.8522 34.7363 72.3644 34.4802 72.1205 33.968C71.9009 33.4314 71.7912 32.4802 71.7912 31.1143C71.7912 30.3338 71.8034 29.7119 71.8278 29.2485L71.8644 26.3216C71.8644 22.5655 72.2424 18.6509 72.9985 14.5777C73.779 10.5046 74.9131 7.08992 76.4009 4.33382C77.9131 1.55333 79.718 0.163086 81.8156 0.163086C82.9375 0.163086 83.84 0.650891 84.5229 1.6265C85.2302 2.57772 85.5839 3.82162 85.5839 5.35821C85.5839 7.82162 84.8644 10.3826 83.4253 13.0411C81.9863 15.6753 79.6449 18.7606 76.4009 22.2972C76.3278 23.5655 76.2912 24.8704 76.2912 26.2119C77.0961 24.1387 77.9863 22.4558 78.9619 21.1631C79.9619 19.846 80.9375 18.907 81.8888 18.346C82.8644 17.785 83.7546 17.5046 84.5595 17.5046C86.1449 17.5046 86.9375 18.2972 86.9375 19.8826C86.9375 20.8338 86.6692 22.5533 86.1327 25.0411C85.6692 27.1631 85.4375 28.5655 85.4375 29.2485C85.4375 30.2241 85.7912 30.7119 86.4985 30.7119C86.9863 30.7119 87.5595 30.4192 88.218 29.8338C88.9009 29.2241 89.8034 28.2485 90.9253 26.907C91.218 26.5655 91.5473 26.3948 91.9131 26.3948ZM81.0473 3.78504C80.6083 3.78504 80.1205 4.41919 79.5839 5.68748C79.0473 6.93138 78.5229 8.6265 78.0107 10.7728C77.5229 12.8948 77.1205 15.2119 76.8034 17.7241C78.3156 15.9436 79.5595 14.0046 80.5351 11.907C81.5351 9.80943 82.0351 7.90699 82.0351 6.19967C82.0351 5.41919 81.9497 4.82162 81.779 4.40699C81.6083 3.99236 81.3644 3.78504 81.0473 3.78504ZM106.29 26.3948C106.607 26.3948 106.851 26.5411 107.021 26.8338C107.217 27.1265 107.314 27.5289 107.314 28.0411C107.314 29.0167 107.082 29.7728 106.619 30.3094C105.717 31.407 104.436 32.4192 102.778 33.346C101.143 34.2728 99.387 34.7363 97.509 34.7363C94.948 34.7363 92.9602 34.0411 91.5456 32.6509C90.1309 31.2606 89.4236 29.3582 89.4236 26.9436C89.4236 25.2606 89.7773 23.6997 90.4846 22.2606C91.1919 20.7972 92.1675 19.6387 93.4114 18.785C94.6797 17.9314 96.1065 17.5046 97.6919 17.5046C99.1065 17.5046 100.241 17.9314 101.094 18.785C101.948 19.6143 102.375 20.7485 102.375 22.1875C102.375 23.8704 101.765 25.3216 100.546 26.5411C99.3504 27.7363 97.3139 28.6875 94.4358 29.3948C95.0456 30.5167 96.2041 31.0777 97.9114 31.0777C99.009 31.0777 100.253 30.6997 101.643 29.9436C103.058 29.1631 104.278 28.1509 105.302 26.907C105.595 26.5655 105.924 26.3948 106.29 26.3948ZM97.07 21.0899C96.1675 21.0899 95.3992 21.6143 94.7651 22.6631C94.1553 23.7119 93.8504 24.9802 93.8504 26.468V26.5411C95.2895 26.1997 96.4236 25.6875 97.2529 25.0046C98.0822 24.3216 98.4968 23.5289 98.4968 22.6265C98.4968 22.1631 98.3626 21.7972 98.0943 21.5289C97.8504 21.2363 97.509 21.0899 97.07 21.0899ZM117.474 26.3948C117.742 28.3948 118.132 30.3704 118.644 32.3216C118.742 32.6387 118.791 32.968 118.791 33.3094C118.791 34.407 118.12 34.9558 116.779 34.9558C116.022 34.9558 115.437 34.7485 115.022 34.3338C114.632 33.9192 114.266 33.1387 113.925 31.9924L113.888 31.846C112.962 32.9924 112.12 33.7606 111.364 34.1509C110.632 34.5411 109.779 34.7363 108.803 34.7363C107.315 34.7363 106.083 34.1875 105.108 33.0899C104.157 31.968 103.681 30.5167 103.681 28.7363C103.681 26.785 104.096 24.9802 104.925 23.3216C105.754 21.6631 106.888 20.3094 108.327 19.2606C109.766 18.1875 111.376 17.5411 113.157 17.3216C113.62 12.7119 114.498 8.69967 115.791 5.28504C117.108 1.8704 118.852 0.163086 121.022 0.163086C122.071 0.163086 122.937 0.638696 123.62 1.58992C124.327 2.54114 124.681 3.98016 124.681 5.90699C124.681 8.58992 124.022 11.7241 122.705 15.3094C121.388 18.8948 119.644 22.5899 117.474 26.3948ZM120.62 3.74845C119.913 3.74845 119.242 5.55333 118.608 9.16309C117.998 12.7728 117.583 16.6997 117.364 20.9436C120.071 15.0899 121.425 10.3338 121.425 6.67528C121.425 5.74845 121.34 5.02894 121.169 4.51675C121.022 4.00455 120.84 3.74845 120.62 3.74845ZM110.083 31.0411C110.571 31.0411 111.035 30.8582 111.474 30.4924C111.937 30.1265 112.522 29.4192 113.23 28.3704C112.986 26.5899 112.864 24.7485 112.864 22.846C112.864 22.0899 112.876 21.5046 112.901 21.0899C111.559 21.4802 110.449 22.3704 109.571 23.7606C108.693 25.1509 108.254 26.6875 108.254 28.3704C108.254 30.1509 108.864 31.0411 110.083 31.0411Z" fill="#ED1B24"/>
</svg>
