<svg width="24" height="24" viewBox="0 0 24 24" fill="none" xmlns="http://www.w3.org/2000/svg">
<circle cx="12" cy="12" r="11.25" transform="matrix(-1 0 0 1 24 0)" fill="white" stroke="#EBEBEB" stroke-width="1.5"/>
<path d="M14.3797 7.27992C14.5264 7.42668 14.6088 7.6257 14.6088 7.83322C14.6088 8.04074 14.5264 8.23977 14.3797 8.38653L10.5057 12.2604L14.3797 16.1344C14.5222 16.282 14.6011 16.4796 14.5993 16.6848C14.5975 16.89 14.5152 17.0863 14.3701 17.2314C14.225 17.3765 14.0287 17.4588 13.8235 17.4606C13.6183 17.4624 13.4207 17.3835 13.2731 17.241L8.84584 12.8137C8.69912 12.667 8.6167 12.468 8.6167 12.2604C8.6167 12.0529 8.69912 11.8539 8.84584 11.7071L13.2731 7.27992C13.4198 7.1332 13.6188 7.05078 13.8264 7.05078C14.0339 7.05078 14.2329 7.1332 14.3797 7.27992Z" fill="#ED1B24"/>
</svg>
