<svg width="26" height="30" viewBox="0 0 26 30" fill="none" xmlns="http://www.w3.org/2000/svg">
<path d="M17.2501 23.5V24.5625C17.2501 25.6897 16.8023 26.7707 16.0053 27.5677C15.2083 28.3647 14.1273 28.8125 13.0001 28.8125C11.8729 28.8125 10.7919 28.3647 9.99488 27.5677C9.19785 26.7707 8.75008 25.6897 8.75008 24.5625V23.5M24.4007 21.3371C22.6954 19.25 21.4915 18.1875 21.4915 12.4334C21.4915 7.16406 18.8007 5.28676 16.586 4.375C16.2918 4.25414 16.0149 3.97656 15.9253 3.67441C15.5368 2.35227 14.4477 1.1875 13.0001 1.1875C11.5524 1.1875 10.4627 2.35293 10.0782 3.67574C9.98856 3.98121 9.71165 4.25414 9.41747 4.375C7.20016 5.28809 4.51204 7.15875 4.51204 12.4334C4.50872 18.1875 3.30477 19.25 1.59946 21.3371C0.892897 22.2018 1.5118 23.5 2.74762 23.5H23.2592C24.4884 23.5 25.1033 22.1978 24.4007 21.3371Z" stroke="#646E82" stroke-width="2.125" stroke-linecap="round" stroke-linejoin="round"/>
</svg>
