<svg width="16" height="16" viewBox="0 0 16 16" fill="none" xmlns="http://www.w3.org/2000/svg">
<g clip-path="url(#clip0_39_822)">
<path d="M7.3032 0L8.8824 0.004C9.5048 0.0792 10.0504 0.372 10.5 0.8664C10.8672 1.2696 11.06 1.7384 11.0712 2.2488H15.4512C15.5975 2.24965 15.7374 2.30851 15.8403 2.41245C15.9432 2.5164 16.0006 2.65694 16 2.8032C16.0003 2.87558 15.9864 2.94732 15.959 3.01432C15.9316 3.08131 15.8912 3.14226 15.8403 3.19366C15.7893 3.24507 15.7287 3.28593 15.662 3.31393C15.5952 3.34192 15.5236 3.35649 15.4512 3.3568L13.9824 3.356V12.6576C13.9824 14.692 13.2232 16 11.5496 16H4.3352C2.6616 16 1.9144 14.6992 1.9144 12.6576V3.356H0.548801C0.402891 3.35537 0.263186 3.2969 0.160311 3.19343C0.057437 3.08995 -0.000212566 2.94991 5.88994e-07 2.804C5.88994e-07 2.4976 0.245601 2.2504 0.548801 2.2504H4.9248C4.936 1.8392 5.0888 1.4224 5.368 1.0104C5.784 0.396 6.4336 0.0592 7.3032 0ZM12.8848 3.356H3.0112V12.6576C3.0112 14.168 3.4272 14.8928 4.3352 14.8928H11.5496C12.4608 14.8928 12.8856 14.1616 12.8856 12.6576L12.8848 3.356ZM5.3728 5.072C5.6752 5.072 5.9208 5.32 5.9208 5.6256V12.0656C5.92112 12.138 5.90717 12.2097 5.87976 12.2767C5.85235 12.3437 5.81202 12.4047 5.76106 12.4561C5.7101 12.5075 5.64951 12.5483 5.58275 12.5763C5.516 12.6043 5.44439 12.6189 5.372 12.6192C5.22595 12.6184 5.08621 12.5596 4.98346 12.4558C4.88071 12.352 4.82336 12.2116 4.824 12.0656V5.6256C4.824 5.32 5.0704 5.072 5.3728 5.072ZM7.5528 5.072C7.8568 5.072 8.1016 5.32 8.1016 5.6256V12.0656C8.10192 12.138 8.08797 12.2097 8.06056 12.2767C8.03315 12.3437 7.99282 12.4047 7.94186 12.4561C7.89089 12.5075 7.83031 12.5483 7.76355 12.5763C7.6968 12.6043 7.62519 12.6189 7.5528 12.6192C7.40675 12.6184 7.26701 12.5596 7.16426 12.4558C7.06151 12.352 7.00416 12.2116 7.0048 12.0656V5.6256C7.0048 5.32 7.2504 5.072 7.5528 5.072ZM9.7352 5.072C10.0376 5.072 10.2832 5.32 10.2832 5.6256V12.0656C10.2838 12.2116 10.2265 12.352 10.1237 12.4558C10.021 12.5596 9.88125 12.6184 9.7352 12.6192C9.66282 12.6189 9.5912 12.6043 9.52445 12.5763C9.45769 12.5483 9.39711 12.5075 9.34614 12.4561C9.29518 12.4047 9.25485 12.3437 9.22744 12.2767C9.20003 12.2097 9.18608 12.138 9.1864 12.0656V5.6256C9.18597 5.47948 9.2435 5.33915 9.34638 5.23537C9.44925 5.1316 9.58908 5.07285 9.7352 5.072ZM7.3408 1.1056C6.8272 1.1416 6.4888 1.3168 6.2736 1.6352C6.1152 1.868 6.036 2.0696 6.0232 2.2496L9.9736 2.2488C9.9624 2.016 9.8704 1.8112 9.692 1.6152C9.4152 1.3112 9.108 1.1464 8.8176 1.1072L7.3408 1.1056Z" fill="#EC2106"/>
</g>
<defs>
<clipPath id="clip0_39_822">
<rect width="16" height="16" fill="white"/>
</clipPath>
</defs>
</svg>
