<svg width="9" height="9" viewBox="0 0 9 9" fill="none" xmlns="http://www.w3.org/2000/svg">
<path d="M4.70364 5.9733L7.69051 2.83849C7.74037 2.78619 7.76819 2.71669 7.76819 2.64443C7.76819 2.57216 7.74037 2.50267 7.69051 2.45037L7.68714 2.44699C7.66296 2.42155 7.63387 2.40129 7.60162 2.38744C7.56937 2.37359 7.53464 2.36645 7.49954 2.36645C7.46445 2.36645 7.42972 2.37359 7.39747 2.38744C7.36522 2.40129 7.33612 2.42155 7.31195 2.44699L4.49945 5.39899L1.68807 2.44699C1.6639 2.42155 1.63481 2.40128 1.60256 2.38744C1.57031 2.37359 1.53558 2.36645 1.50048 2.36645C1.46538 2.36645 1.43065 2.37359 1.3984 2.38744C1.36616 2.40128 1.33706 2.42155 1.31289 2.44699L1.30951 2.45037C1.25965 2.50267 1.23183 2.57216 1.23183 2.64443C1.23183 2.71669 1.25965 2.78618 1.30951 2.83849L4.29639 5.9733C4.32265 6.00087 4.35424 6.02282 4.38925 6.03782C4.42425 6.05281 4.46193 6.06055 4.50001 6.06055C4.53809 6.06055 4.57577 6.05281 4.61077 6.03782C4.64578 6.02282 4.67737 6.00087 4.70364 5.9733Z" fill="#646E82"/>
</svg>
